<svg id="LOGO" xmlns="http://www.w3.org/2000/svg" viewBox="0 0 500 500"><defs><style>.cls-1{fill:#fff;}</style></defs><rect id="rect22393" width="500" height="500"/><path id="circle22395" class="cls-1" d="M250,113.1Zm0,0Zm0,0a0,0,0,0,1,0,0h0s-3.36,7-9.37,10.64c0,0-5.74-3.55-11.29-2.28a7.1,7.1,0,0,0-3.74,1.75h0a7,7,0,0,0,4.69,12.13h0a7,7,0,0,0,4.68-1.81h0l.82,1.16-4,2s1.53,3.38,1.05,4.65l6.5-6.6,6.76,7.68-7.73,8-9.18-10.75a9.77,9.77,0,0,0-7.66-3.71,25,25,0,0,0-6.38,1.09l14.56,16.53,2.67,3-6.57,6.78-.69-.78c-4.37-5-9-4-14-2.62l8.58,9.75L193,197.15v-38c-6.7,3.85-16.24,5.52-16.24,17.95v36.78l-38.25,39.46h0l-1.23,1.48c-12.66-15.91-25.61-27.94-29.92-34.82-7.51-12-4.55-18.69-4.55-18.69a14.89,14.89,0,0,1,1.22-4.27,12.09,12.09,0,0,1,2.48-3.5,15.39,15.39,0,0,1,4.34-2.93,27.06,27.06,0,0,1,7-2A22.65,22.65,0,0,1,127,189a23.8,23.8,0,0,1,7.87,3.7,29,29,0,0,1,5.93,5.72c11.36,14.45-1.28,21.45-1.28,21.45a8.08,8.08,0,0,1-6.94.24,9,9,0,0,1-2.13-1.24,11.83,11.83,0,0,1-1.15-1.08,11.58,11.58,0,0,1-2.31-3.57,10.91,10.91,0,0,1-.83-4.44q-.06-.41-.09-.84a11.28,11.28,0,0,1,.41-3.43,14.11,14.11,0,0,1,1.06-2.67,14.18,14.18,0,0,0-2,2.23,16.69,16.69,0,0,0-1.87,3.41c-.13.32-.25.64-.36,1a15.23,15.23,0,0,0,2.11,11.27,14.49,14.49,0,0,0,1.39,1.83,17,17,0,0,0,2.78,2.56,15.64,15.64,0,0,0,5.94,2.7,15.4,15.4,0,0,0,6.23.1,14.24,14.24,0,0,0,5.71-2.47,10.69,10.69,0,0,0,1.65-1.45h0c12.21-10.47,0-29.14,0-29.14-.22-.35-.44-.7-.67-1a38.89,38.89,0,0,0-7.84-8.63,33.45,33.45,0,0,0-10.8-5.85,32.11,32.11,0,0,0-9.83-1.49h0a33.26,33.26,0,0,0-3.55.21,38.26,38.26,0,0,0-9.88,2.27,26.22,26.22,0,0,0-7.87,4.65,22.46,22.46,0,0,0-5.35,6.86c-9.06,17.32,2.37,31,8.62,38.48,4.7,5.43,10.5,13.72,16.37,22.72a14.86,14.86,0,0,0-5-1,4.68,4.68,0,0,0-.53,0h0c-19.56.18-22.38,29.54-12.68,47.1-4.44,5.34-8.45,10.56-12.47,15.74a55.51,55.51,0,0,0-6,8.63c-8.75,17.33,3,38.5,24,33.22a18.57,18.57,0,0,0,6.78-3,17.67,17.67,0,0,0,5.11-5.64,16.74,16.74,0,0,0,2.06-6.37,17,17,0,0,0-.3-5.55c-.06-.28-.13-.55-.21-.82a14.6,14.6,0,0,0-2.91-5.51,13.81,13.81,0,0,0-10.44-5,13.94,13.94,0,0,0-4.42.58,12.48,12.48,0,0,0-2.25.92,12.09,12.09,0,0,0-1.91,1.25,10.78,10.78,0,0,0-3,3.65,10.45,10.45,0,0,1,7.41-4.41,10.45,10.45,0,0,1,3.83.25,9.24,9.24,0,0,1,3.88,2.08,10,10,0,0,1,2.65,3.5,11.87,11.87,0,0,1,1,3.93c0,.18,0,.36,0,.54a10.9,10.9,0,0,1-.37,3.39,10.73,10.73,0,0,1-4.83,6.31,11.52,11.52,0,0,1-3.89,1.4,12.24,12.24,0,0,1-4.18,0,11.55,11.55,0,0,1-3.8-1.41l-.14-.09a12.87,12.87,0,0,1-1.17-.81c-6-5.59-5.36-12.9-4.5-16.66a11.39,11.39,0,0,1,2.54-5c8-11,23.1-26.35,23.1-26.35l2-2.18a94.7,94.7,0,0,0-6.42-9.59l-3.16,3.8c-.85.92-1.67,1.83-2.49,2.74A37.2,37.2,0,0,1,102.44,275c8.78,7.48,17.85,20.6,22.88,34.17a45.37,45.37,0,0,0,7.62.42c-4.47-19-15.87-37.34-28-43.68a17,17,0,0,1,1.39-2.23h0c7.78-8.21,17.65.37,25.77,11.38,1.72,2.86,3.37,5.63,4.89,8.21a.64.64,0,0,1,0,.07l.07,0c6.1,10.33,10.3,17.85,10.3,17.85h0l1.76,3.91a19.88,19.88,0,0,1-7.87,4.12,59.45,59.45,0,0,1,.1-15.41l-4.91-8.33a59.92,59.92,0,0,0-1.48,21.71c.1,1,.22,2.06.36,3.08a43.52,43.52,0,0,1-10.94-.5l0,.06a23.86,23.86,0,0,1-11.7-6.85l-5,5.43c9.16,8.57,18.8,10.43,29.17,9.07a52.23,52.23,0,0,0,7.73,16.43l2.89-6.43a45.61,45.61,0,0,1-4.72-11.08c1.43-.33,2.88-.7,4.34-1.12a37.91,37.91,0,0,0,6.73-2.61c-.95,4.43-3.18,10.08-5.72,15.84l-2.84,6.35c-3.34,7.18-6.63,14.1-7.68,19.64-1.17,6.2-.63,13.61,3.12,19.36s9.06,11.07,20.21,11.71c9.65.55,16.87-1.62,21.85-6.45a26.12,26.12,0,0,0,5.62-8.1,34.63,34.63,0,0,1-6.11-1.93,16.3,16.3,0,0,1-3.74,5.66c-3.59,3.47-9,5.61-17,4.3a20.88,20.88,0,0,1-14.85-9.59,18.67,18.67,0,0,1-3.08-13.83c.67-3.55,3.26-9.43,6.1-15.69h0l.68-1.5h0c3.22-3.92,10-20.12,13.26-32s8-12.82,8-12.82c-3.84-.56-10.14,2.64-10.14,2.64a128.58,128.58,0,0,0-16-30.6l1-1.07h0L176.77,230v54h14.51l17.23,0v-2.85L194.44,278v-27.7l29.48,30.84H222.1v2.82h24.59v-2.82h-3.4l-33.76-35.33,35-33.59H215.87l8.11,3.29-31,29.71V222.67l13-10.48H193v-.67l31.75-36.05,7.38,8.38-.91,1A6.64,6.64,0,1,0,233.76,195h0l4.09-4.64L250,204.12V190.8l-6.28-7.13,6.28-7.12,6.28,7.12L250,190.8v13.32l12.14-13.79,4.09,4.64h0a6.65,6.65,0,1,0,2.53-10.07l-.91-1,7.38-8.38,32.34,36.72H296.43l12.05,9.27v35.21l-38.17-44.48H250l5.57,9.23v59.69H250v2.82h25.89v-2.82h-5.58V239.26l38.17,44.67h14.74V230l30.46,34.58h0l1,1.07a128.19,128.19,0,0,0-16,30.6s-6.31-3.19-10.15-2.64c0,0,4.72.92,8,12.82s10,28.1,13.27,32h0l.67,1.5h0c2.84,6.26,5.43,12.14,6.1,15.69a18.67,18.67,0,0,1-3.08,13.83A20.88,20.88,0,0,1,338.59,379c-8,1.31-13.44-.83-17-4.3a16.19,16.19,0,0,1-3.75-5.66,34.63,34.63,0,0,1-6.11,1.93,26.12,26.12,0,0,0,5.62,8.1c5,4.83,12.2,7,21.85,6.45,11.15-.64,16.46-6,20.21-11.71s4.3-13.16,3.12-19.36c-1.05-5.54-4.34-12.46-7.68-19.64L352,328.49c-2.54-5.76-4.77-11.41-5.72-15.84a37.91,37.91,0,0,0,6.73,2.61c1.46.42,2.91.79,4.35,1.12a46,46,0,0,1-4.73,11.08l2.9,6.43a52.21,52.21,0,0,0,7.72-16.43c10.37,1.36,20-.5,29.17-9.07l-5-5.43a23.86,23.86,0,0,1-11.7,6.85l0-.06a43.52,43.52,0,0,1-10.94.5c.14-1,.27-2,.36-3.07a60,60,0,0,0-1.48-21.72l-4.91,8.33a59.45,59.45,0,0,1,.1,15.41,19.88,19.88,0,0,1-7.87-4.12l1.76-3.91h0s4.21-7.52,10.3-17.85h.07l0-.08c1.52-2.58,3.17-5.35,4.89-8.21,8.12-11,18-19.59,25.77-11.38h0a18.06,18.06,0,0,1,1.38,2.23c-12.17,6.34-23.56,24.67-28,43.68a45.29,45.29,0,0,0,7.62-.42c5-13.57,14.1-26.69,22.89-34.17a37.2,37.2,0,0,1-3.25,17.63c-.82-.91-1.64-1.82-2.5-2.74l-3.15-3.8a93.12,93.12,0,0,0-6.43,9.59l2,2.18s15,15.36,23.1,26.35a11.38,11.38,0,0,1,2.53,5c.87,3.76,1.5,11.07-4.5,16.66a12.73,12.73,0,0,1-1.16.81l-.14.09a11.41,11.41,0,0,1-3.8,1.41,12.24,12.24,0,0,1-4.18,0,11.52,11.52,0,0,1-3.89-1.4,10.62,10.62,0,0,1-5.2-9.7c0-.18,0-.36,0-.54a11.88,11.88,0,0,1,1-3.93,10,10,0,0,1,2.65-3.5,9.18,9.18,0,0,1,3.88-2.08,10.51,10.51,0,0,1,11.23,4.16,10.85,10.85,0,0,0-2.94-3.65,11.75,11.75,0,0,0-1.92-1.25,12.09,12.09,0,0,0-2.24-.92,13.94,13.94,0,0,0-4.42-.58,14.41,14.41,0,0,0-5.49,1.22,14.21,14.21,0,0,0-4.95,3.77,14.76,14.76,0,0,0-2.92,5.51c-.07.27-.14.54-.2.82a16.86,16.86,0,0,0,1.75,11.92,17.81,17.81,0,0,0,5.12,5.64,18.49,18.49,0,0,0,6.78,3c21,5.28,32.77-15.89,24-33.22a55.51,55.51,0,0,0-6.05-8.63c-4-5.17-8-10.4-12.47-15.74,9.7-17.56,6.88-46.92-12.68-47.09h0a4.68,4.68,0,0,0-.53,0,14.81,14.81,0,0,0-5,1c5.87-9,11.67-17.29,16.36-22.72,6.26-7.5,17.69-21.16,8.63-38.48a22.65,22.65,0,0,0-5.36-6.86,26.1,26.1,0,0,0-7.87-4.65,38.07,38.07,0,0,0-9.88-2.27q-1.8-.19-3.54-.21h0a32,32,0,0,0-9.83,1.49,33.34,33.34,0,0,0-10.81,5.86,38.58,38.58,0,0,0-7.83,8.62c-.24.34-.46.69-.67,1,0,0-12.23,18.67,0,29.14h0a12.44,12.44,0,0,0,1.65,1.46,14.47,14.47,0,0,0,5.72,2.46,15.67,15.67,0,0,0,12.17-2.8,17.4,17.4,0,0,0,2.78-2.56,14.49,14.49,0,0,0,1.39-1.83,15.23,15.23,0,0,0,2.11-11.27c-.11-.31-.24-.63-.37-1a16.63,16.63,0,0,0-1.86-3.41,13.62,13.62,0,0,0-2-2.23,12.87,12.87,0,0,1,1.06,2.67,11,11,0,0,1,.41,3.43,7.48,7.48,0,0,1-.08.84,11.26,11.26,0,0,1-.83,4.44,11.76,11.76,0,0,1-2.31,3.57,12,12,0,0,1-1.16,1.08,8.64,8.64,0,0,1-2.13,1.24,8.06,8.06,0,0,1-6.93-.24s-12.64-7-1.28-21.45a28.77,28.77,0,0,1,5.93-5.72A23.71,23.71,0,0,1,373,189a22.64,22.64,0,0,1,9.16-.37,27.06,27.06,0,0,1,6.95,2,15.39,15.39,0,0,1,4.34,2.93,12,12,0,0,1,2.47,3.5,14.9,14.9,0,0,1,1.23,4.27s2.95,6.72-4.55,18.7c-4.31,6.87-17.27,18.9-29.93,34.81l-1.23-1.48h0l-38.24-39.46V177.13c0-12.43-9.55-14.1-16.25-17.95v38l-26.63-27.48,8.58-9.75c-5-1.34-9.68-2.34-14,2.62l-.69.78-6.57-6.78,2.66-3L284.85,137a25,25,0,0,0-6.38-1.09,9.79,9.79,0,0,0-7.67,3.71l-9.18,10.75-7.73-8,6.77-7.68,6.5,6.6c-.48-1.27,1-4.65,1-4.65l-4-2,.82-1.16h0a7,7,0,0,0,9.38-10.32h0a7,7,0,0,0-3.73-1.74c-5.56-1.28-11.29,2.27-11.29,2.27-6-3.66-9.37-10.63-9.38-10.64Zm0,10.75h0l7.08,7.19L250,138.36l-7.08-7.31,7.08-7.19Zm-20.8,2.65a2.6,2.6,0,1,1-2.6,2.6h0a2.59,2.59,0,0,1,2.6-2.6Zm41.61,0a2.6,2.6,0,1,1-2.6,2.6A2.59,2.59,0,0,1,270.8,126.5ZM250,146.81l7.38,8.39L250,163.58l-7.39-8.38Zm-13.1,14.87,7.38,8.39L238,177.19l-7.38-8.38Zm26.19,0,6.27,7.13L262,177.19l-6.27-7.12ZM125.64,268.86,118.9,277a75.56,75.56,0,0,1,6.62,10.23l7.85-8.56c-.45-.67-.92-1.33-1.39-2A74.39,74.39,0,0,0,125.64,268.86Zm248.71,0a74.39,74.39,0,0,0-6.34,7.79c-.47.66-.94,1.32-1.39,2l7.85,8.56A75.56,75.56,0,0,1,381.09,277ZM176.77,292.78c0,13.24,3.88,25.45,10.33,36.61a32.8,32.8,0,0,0-10.61-2.78l-.87,0a15,15,0,0,0-2.6.22,9.94,9.94,0,0,0-6.13,3.46,13,13,0,0,0-2.55,7.64,39.72,39.72,0,0,0,0,4.23,55.77,55.77,0,0,0,6.34,2.59,33.29,33.29,0,0,1-.27-6.51,7.11,7.11,0,0,1,1.21-4.13,3.55,3.55,0,0,1,2.43-1.28c2.37-.41,6.56.5,10.81,2.24a78.83,78.83,0,0,1,9,4.5q2.6,3.42,5.48,6.7a155.28,155.28,0,0,0,14.16,14,32.57,32.57,0,0,1-11.9,4.26,30.08,30.08,0,0,1-21.21-4.16,22.08,22.08,0,0,1-6-5.77l-2.88-.86h0a50,50,0,0,1-5.18-1.75h0A28,28,0,0,0,177,365.46a35.62,35.62,0,0,0,25.69,5.08c7.65-1.39,12.55-3.85,15.59-6.17A310,310,0,0,0,250,386.9h0a308.87,308.87,0,0,0,31.69-22.53c3.05,2.32,7.94,4.78,15.59,6.17A35.61,35.61,0,0,0,323,365.46,28,28,0,0,0,333.61,352h0a50,50,0,0,1-5.18,1.75h0l-2.87.86a22,22,0,0,1-6,5.77c-6.19,4.15-14.51,5.37-21.21,4.16a32.5,32.5,0,0,1-11.89-4.26,155.15,155.15,0,0,0,14.15-14q2.88-3.27,5.48-6.7a80.5,80.5,0,0,1,9-4.5c4.26-1.74,8.45-2.65,10.82-2.24a3.51,3.51,0,0,1,2.42,1.28,7,7,0,0,1,1.21,4.13,34.13,34.13,0,0,1-.26,6.51,57.31,57.31,0,0,0,6.34-2.59,39.78,39.78,0,0,0,0-4.23,13,13,0,0,0-2.54-7.64,10,10,0,0,0-6.14-3.46,14.93,14.93,0,0,0-2.59-.22h0l-.88,0a32.86,32.86,0,0,0-10.61,2.78c6.45-11.16,10.34-23.37,10.34-36.61H307c0,15.47-6.74,29.33-18.54,42.74-9.92,11.27-23.37,21.93-38.44,32-15.07-10.08-28.52-20.74-38.44-32C199.75,322.11,193,308.25,193,292.78Zm83.87,19,.15.83a13.71,13.71,0,0,1,.14,2.16v12.42a1.49,1.49,0,0,1-1.46,1.46H259v.23h7.25v-.23h-.45a1.41,1.41,0,0,1-1-.44,1.38,1.38,0,0,1-.43-1h0l0-9.48,12.1,11.51h.22l-.08-.38c0-.26-.09-.62-.14-1.08a15.58,15.58,0,0,1-.07-1.6V313.79a1.46,1.46,0,0,1,.45-1,1.4,1.4,0,0,1,1-.43h.43v-.24H271v.24h.46a1.35,1.35,0,0,1,1,.43,1.46,1.46,0,0,1,.45,1v9.46l-12.08-11.51Zm-38.93.36v.24H222a1.41,1.41,0,0,1,1,.45,1.52,1.52,0,0,1,.48,1V327.1a1.58,1.58,0,0,1-.48,1.07,1.44,1.44,0,0,1-1,.44h-.31v.23H229v-.23h-.31a1.54,1.54,0,0,1-1.08-.44,1.64,1.64,0,0,1-.45-1.07V313.84a1.57,1.57,0,0,1,.45-1,1.51,1.51,0,0,1,1.08-.45H229v-.24h-7.27Zm11.08,0v.21H233a.68.68,0,0,1,.66.36.66.66,0,0,1-.08.74L227.9,321l.27.41.74,1,1,1.34c.35.46.68.92,1,1.36s.6.83.84,1.15l.48.65a4.19,4.19,0,0,0,1.34,1.19,5.89,5.89,0,0,0,1.55.58,8.59,8.59,0,0,0,1.37.19c.41,0,.71,0,.88,0h2v-.23a2.61,2.61,0,0,1-1.31-.39,4.65,4.65,0,0,1-1.13-1.1L230.92,319l4.78-5.68a3.67,3.67,0,0,1,1-.66,3.32,3.32,0,0,1,1.49-.34h.09v-.21h-5.47Zm7.2,0v.24h.34a2.46,2.46,0,0,1,1.41.43,3.05,3.05,0,0,1,1,1h0l4.54,7.49v5.86a1.53,1.53,0,0,1-.47,1.07,1.44,1.44,0,0,1-1.06.44h-.31v.23h7.25v-.23h-.28a1.5,1.5,0,0,1-1.08-.44,1.48,1.48,0,0,1-.46-1.07v-5.9l4.7-7.45h0a3.34,3.34,0,0,1,1-1,2.56,2.56,0,0,1,1.41-.43h.34v-.24H252.6v.24h.29a.83.83,0,0,1,.59.23,1.07,1.07,0,0,1,.36.58.75.75,0,0,1-.12.67h0L250.18,320l-3.43-6.22a1,1,0,0,1,0-1,.9.9,0,0,1,.82-.5h.31v-.24Zm-105.48,6.37a40.39,40.39,0,0,1-6.41,0c1.52,7,1.69,13.79-.11,19.64h0a37.33,37.33,0,0,1-11.49,17.33s12.82-2.12,17.61-20.23a56.86,56.86,0,0,0,.4-16.79Zm231,0a56.86,56.86,0,0,0,.4,16.79c4.79,18.11,17.61,20.23,17.61,20.23A37.33,37.33,0,0,1,372,338.16h0c-1.79-5.85-1.63-12.64-.11-19.64a40.39,40.39,0,0,1-6.41,0Zm-116,2.67ZM153.7,335.66l-2.76,5.6A49.56,49.56,0,0,0,171.84,353l-.06,0c4.19,1.25,7.27,2.14,8.91,3.22s2.29,2,2.59,4.94a27.85,27.85,0,0,0,7,2.4,19,19,0,0,0,0-3c-.37-4.53-2.38-8-5.36-9.93s-6.44-2.75-10.52-4l0,0C166.71,344.54,159.07,341.11,153.7,335.66Zm192.6,0c-5.38,5.45-13,8.88-20.65,11l0,0c-4.08,1.21-7.54,2-10.52,4s-5,5.4-5.36,9.93a19,19,0,0,0,0,3,27.85,27.85,0,0,0,7-2.4c.3-3,1-3.91,2.59-4.94s4.72-2,8.91-3.22l-.06,0a49.6,49.6,0,0,0,20.91-11.78Z"/></svg>